<mxfile host="app.diagrams.net" agent="Mozilla/5.0 (Windows NT 10.0; Win64; x64) AppleWebKit/537.36 (KHTML, like Gecko) Chrome/131.0.0.0 Safari/537.36 Edg/131.0.0.0" version="24.8.6">
  <diagram name="Page-1" id="SkKAJ4ka3RpPyDys2HW9">
    <mxGraphModel dx="1737" dy="885" grid="1" gridSize="10" guides="1" tooltips="1" connect="1" arrows="1" fold="1" page="1" pageScale="1" pageWidth="827" pageHeight="1169" math="0" shadow="0">
      <root>
        <mxCell id="0" />
        <mxCell id="1" parent="0" />
        <mxCell id="Y745U1mSrs2pT98jaRJC-1" value="&lt;p style=&quot;margin: 4px 0px 0px; text-align: center;&quot;&gt;&lt;b style=&quot;&quot;&gt;1.0&lt;/b&gt;&lt;/p&gt;&lt;hr size=&quot;1&quot; style=&quot;border-style:solid;&quot;&gt;&lt;p style=&quot;margin:0px;margin-left:8px;&quot;&gt;Register:Form&lt;/p&gt;&lt;p style=&quot;margin:0px;margin-left:8px;&quot;&gt;(register.php)&lt;/p&gt;" style="verticalAlign=top;align=left;overflow=fill;html=1;whiteSpace=wrap;rounded=1;" parent="1" vertex="1">
          <mxGeometry x="360" y="40" width="160" height="90" as="geometry" />
        </mxCell>
        <mxCell id="Y745U1mSrs2pT98jaRJC-2" value="&lt;p style=&quot;margin: 4px 0px 0px; text-align: center;&quot;&gt;&lt;b style=&quot;&quot;&gt;2.0&lt;/b&gt;&lt;/p&gt;&lt;hr size=&quot;1&quot; style=&quot;border-style:solid;&quot;&gt;&lt;p style=&quot;margin:0px;margin-left:8px;&quot;&gt;Login&lt;/p&gt;&lt;p style=&quot;margin:0px;margin-left:8px;&quot;&gt;(login.php)&lt;/p&gt;" style="verticalAlign=top;align=left;overflow=fill;html=1;whiteSpace=wrap;rounded=1;" parent="1" vertex="1">
          <mxGeometry x="360" y="200" width="160" height="70" as="geometry" />
        </mxCell>
        <mxCell id="Y745U1mSrs2pT98jaRJC-3" value="&lt;p style=&quot;margin: 4px 0px 0px; text-align: center;&quot;&gt;&lt;b&gt;3.0&lt;/b&gt;&lt;/p&gt;&lt;hr size=&quot;1&quot; style=&quot;border-style:solid;&quot;&gt;&lt;p style=&quot;margin:0px;margin-left:8px;&quot;&gt;View Rooms&lt;/p&gt;&lt;p style=&quot;margin:0px;margin-left:8px;&quot;&gt;(reservation.php)&lt;/p&gt;" style="verticalAlign=top;align=left;overflow=fill;html=1;whiteSpace=wrap;rounded=1;" parent="1" vertex="1">
          <mxGeometry x="360" y="330" width="160" height="70" as="geometry" />
        </mxCell>
        <mxCell id="Y745U1mSrs2pT98jaRJC-4" value="&lt;p style=&quot;margin: 4px 0px 0px; text-align: center;&quot;&gt;&lt;b style=&quot;&quot;&gt;4.0&lt;/b&gt;&lt;/p&gt;&lt;hr size=&quot;1&quot; style=&quot;border-style:solid;&quot;&gt;&lt;p style=&quot;margin:0px;margin-left:8px;&quot;&gt;Search Rooms&lt;/p&gt;&lt;p style=&quot;margin:0px;margin-left:8px;&quot;&gt;(reservation.php)&lt;/p&gt;" style="verticalAlign=top;align=left;overflow=fill;html=1;whiteSpace=wrap;rounded=1;" parent="1" vertex="1">
          <mxGeometry x="360" y="450" width="160" height="70" as="geometry" />
        </mxCell>
        <mxCell id="Y745U1mSrs2pT98jaRJC-5" value="&lt;p style=&quot;margin: 4px 0px 0px; text-align: center;&quot;&gt;&lt;b style=&quot;&quot;&gt;5.0&lt;/b&gt;&lt;/p&gt;&lt;hr size=&quot;1&quot; style=&quot;border-style:solid;&quot;&gt;&lt;p style=&quot;margin:0px;margin-left:8px;&quot;&gt;Book Rooms&lt;/p&gt;&lt;p style=&quot;margin:0px;margin-left:8px;&quot;&gt;(add_reserve.php)&lt;/p&gt;" style="verticalAlign=top;align=left;overflow=fill;html=1;whiteSpace=wrap;rounded=1;" parent="1" vertex="1">
          <mxGeometry x="360" y="570" width="160" height="110" as="geometry" />
        </mxCell>
        <mxCell id="Y745U1mSrs2pT98jaRJC-7" value="Admin" style="html=1;whiteSpace=wrap;" parent="1" vertex="1">
          <mxGeometry x="680" y="570" width="110" height="100" as="geometry" />
        </mxCell>
        <mxCell id="Y745U1mSrs2pT98jaRJC-8" value="User Data" style="text;html=1;align=center;verticalAlign=middle;whiteSpace=wrap;rounded=0;" parent="1" vertex="1">
          <mxGeometry x="240" y="40" width="60" height="30" as="geometry" />
        </mxCell>
        <mxCell id="Y745U1mSrs2pT98jaRJC-9" value="User Ceredentials" style="text;html=1;align=center;verticalAlign=middle;whiteSpace=wrap;rounded=0;" parent="1" vertex="1">
          <mxGeometry x="250" y="210" width="60" height="30" as="geometry" />
        </mxCell>
        <mxCell id="Y745U1mSrs2pT98jaRJC-10" value="Valdation" style="text;html=1;align=center;verticalAlign=middle;whiteSpace=wrap;rounded=0;" parent="1" vertex="1">
          <mxGeometry x="550" y="200" width="60" height="30" as="geometry" />
        </mxCell>
        <mxCell id="Y745U1mSrs2pT98jaRJC-11" value="Show Details" style="text;html=1;align=center;verticalAlign=middle;whiteSpace=wrap;rounded=0;" parent="1" vertex="1">
          <mxGeometry x="560" y="575" width="60" height="30" as="geometry" />
        </mxCell>
        <mxCell id="Y745U1mSrs2pT98jaRJC-12" value="" style="endArrow=classic;html=1;rounded=0;exitX=1;exitY=0.301;exitDx=0;exitDy=0;exitPerimeter=0;" parent="1" edge="1" source="Y745U1mSrs2pT98jaRJC-5">
          <mxGeometry width="50" height="50" relative="1" as="geometry">
            <mxPoint x="521" y="603" as="sourcePoint" />
            <mxPoint x="680" y="600" as="targetPoint" />
          </mxGeometry>
        </mxCell>
        <mxCell id="Y745U1mSrs2pT98jaRJC-13" value="Manages Bookings" style="text;html=1;align=center;verticalAlign=middle;whiteSpace=wrap;rounded=0;" parent="1" vertex="1">
          <mxGeometry x="570" y="620" width="60" height="30" as="geometry" />
        </mxCell>
        <mxCell id="Y745U1mSrs2pT98jaRJC-14" value="Manages Users" style="text;html=1;align=center;verticalAlign=middle;whiteSpace=wrap;rounded=0;" parent="1" vertex="1">
          <mxGeometry x="560" y="660" width="60" height="30" as="geometry" />
        </mxCell>
        <mxCell id="Y745U1mSrs2pT98jaRJC-15" value="" style="endArrow=classic;html=1;rounded=0;entryX=0;entryY=0.25;entryDx=0;entryDy=0;exitX=0.568;exitY=0.001;exitDx=0;exitDy=0;exitPerimeter=0;" parent="1" target="Y745U1mSrs2pT98jaRJC-1" edge="1">
          <mxGeometry width="50" height="50" relative="1" as="geometry">
            <mxPoint x="201" y="130" as="sourcePoint" />
            <mxPoint x="310" y="110" as="targetPoint" />
            <Array as="points">
              <mxPoint x="200" y="63" />
            </Array>
          </mxGeometry>
        </mxCell>
        <mxCell id="Y745U1mSrs2pT98jaRJC-16" value="" style="endArrow=classic;html=1;rounded=0;entryX=1;entryY=0.5;entryDx=0;entryDy=0;exitX=0.089;exitY=1.006;exitDx=0;exitDy=0;exitPerimeter=0;" parent="1" source="BHMo-wDlbKty1T46JkNd-1" target="Y745U1mSrs2pT98jaRJC-2" edge="1">
          <mxGeometry width="50" height="50" relative="1" as="geometry">
            <mxPoint x="675" y="110" as="sourcePoint" />
            <mxPoint x="370" y="73" as="targetPoint" />
            <Array as="points">
              <mxPoint x="646" y="235" />
            </Array>
          </mxGeometry>
        </mxCell>
        <mxCell id="Y745U1mSrs2pT98jaRJC-17" value="" style="endArrow=classic;html=1;rounded=0;exitX=1;exitY=0.5;exitDx=0;exitDy=0;entryX=0;entryY=0.5;entryDx=0;entryDy=0;" parent="1" source="Y745U1mSrs2pT98jaRJC-1" edge="1">
          <mxGeometry width="50" height="50" relative="1" as="geometry">
            <mxPoint x="530" y="150" as="sourcePoint" />
            <mxPoint x="630" y="85" as="targetPoint" />
          </mxGeometry>
        </mxCell>
        <mxCell id="Y745U1mSrs2pT98jaRJC-18" value="" style="endArrow=classic;html=1;rounded=0;exitX=0.5;exitY=1;exitDx=0;exitDy=0;entryX=0;entryY=0.75;entryDx=0;entryDy=0;" parent="1" target="Y745U1mSrs2pT98jaRJC-2" edge="1">
          <mxGeometry width="50" height="50" relative="1" as="geometry">
            <mxPoint x="195" y="180" as="sourcePoint" />
            <mxPoint x="640" y="95" as="targetPoint" />
            <Array as="points">
              <mxPoint x="195" y="253" />
            </Array>
          </mxGeometry>
        </mxCell>
        <mxCell id="Y745U1mSrs2pT98jaRJC-19" value="" style="endArrow=classic;html=1;rounded=0;exitX=0.469;exitY=1;exitDx=0;exitDy=0;exitPerimeter=0;" parent="1" source="Y745U1mSrs2pT98jaRJC-1" edge="1">
          <mxGeometry width="50" height="50" relative="1" as="geometry">
            <mxPoint x="420" y="240" as="sourcePoint" />
            <mxPoint x="435" y="200" as="targetPoint" />
          </mxGeometry>
        </mxCell>
        <mxCell id="Y745U1mSrs2pT98jaRJC-20" value="" style="endArrow=classic;html=1;rounded=0;" parent="1" target="Y745U1mSrs2pT98jaRJC-3" edge="1">
          <mxGeometry width="50" height="50" relative="1" as="geometry">
            <mxPoint x="440" y="270" as="sourcePoint" />
            <mxPoint x="445" y="210" as="targetPoint" />
          </mxGeometry>
        </mxCell>
        <mxCell id="Y745U1mSrs2pT98jaRJC-21" value="" style="endArrow=classic;html=1;rounded=0;" parent="1" edge="1">
          <mxGeometry width="50" height="50" relative="1" as="geometry">
            <mxPoint x="440" y="400" as="sourcePoint" />
            <mxPoint x="440" y="450" as="targetPoint" />
          </mxGeometry>
        </mxCell>
        <mxCell id="Y745U1mSrs2pT98jaRJC-22" value="" style="endArrow=classic;html=1;rounded=0;entryX=0.5;entryY=0;entryDx=0;entryDy=0;exitX=0.5;exitY=1;exitDx=0;exitDy=0;" parent="1" source="Y745U1mSrs2pT98jaRJC-4" target="Y745U1mSrs2pT98jaRJC-5" edge="1">
          <mxGeometry width="50" height="50" relative="1" as="geometry">
            <mxPoint x="450" y="410" as="sourcePoint" />
            <mxPoint x="450" y="460" as="targetPoint" />
          </mxGeometry>
        </mxCell>
        <mxCell id="Y745U1mSrs2pT98jaRJC-23" value="User Data" style="text;html=1;align=center;verticalAlign=middle;whiteSpace=wrap;rounded=0;" parent="1" vertex="1">
          <mxGeometry x="560" y="60" width="60" height="30" as="geometry" />
        </mxCell>
        <mxCell id="Y745U1mSrs2pT98jaRJC-25" value="&lt;p style=&quot;margin: 4px 0px 0px; text-align: center;&quot;&gt;&lt;b style=&quot;&quot;&gt;6.0&lt;/b&gt;&lt;/p&gt;&lt;hr size=&quot;1&quot; style=&quot;border-style:solid;&quot;&gt;&lt;p style=&quot;margin:0px;margin-left:8px;&quot;&gt;Add Rooms&lt;/p&gt;&lt;p style=&quot;margin:0px;margin-left:8px;&quot;&gt;(add_room.php)&lt;/p&gt;" style="verticalAlign=top;align=left;overflow=fill;html=1;whiteSpace=wrap;rounded=1;" parent="1" vertex="1">
          <mxGeometry x="650" y="440" width="160" height="70" as="geometry" />
        </mxCell>
        <mxCell id="Y745U1mSrs2pT98jaRJC-26" value="" style="endArrow=classic;html=1;rounded=0;exitX=0.364;exitY=0;exitDx=0;exitDy=0;exitPerimeter=0;" parent="1" source="Y745U1mSrs2pT98jaRJC-7" edge="1">
          <mxGeometry width="50" height="50" relative="1" as="geometry">
            <mxPoint x="720" y="568.7300000000001" as="sourcePoint" />
            <mxPoint x="720" y="510" as="targetPoint" />
          </mxGeometry>
        </mxCell>
        <mxCell id="Y745U1mSrs2pT98jaRJC-27" value="" style="endArrow=classic;html=1;rounded=0;" parent="1" edge="1">
          <mxGeometry width="50" height="50" relative="1" as="geometry">
            <mxPoint x="700" y="440" as="sourcePoint" />
            <mxPoint x="699" y="390" as="targetPoint" />
          </mxGeometry>
        </mxCell>
        <mxCell id="Y745U1mSrs2pT98jaRJC-28" value="" style="endArrow=classic;html=1;rounded=0;entryX=1;entryY=0.5;entryDx=0;entryDy=0;" parent="1" target="Y745U1mSrs2pT98jaRJC-3" edge="1">
          <mxGeometry width="50" height="50" relative="1" as="geometry">
            <mxPoint x="650" y="365" as="sourcePoint" />
            <mxPoint x="450" y="460" as="targetPoint" />
          </mxGeometry>
        </mxCell>
        <mxCell id="Y745U1mSrs2pT98jaRJC-29" value="" style="endArrow=classic;html=1;rounded=0;exitX=0;exitY=0.5;exitDx=0;exitDy=0;entryX=1;entryY=0.5;entryDx=0;entryDy=0;" parent="1" source="Y745U1mSrs2pT98jaRJC-7" target="Y745U1mSrs2pT98jaRJC-5" edge="1">
          <mxGeometry width="50" height="50" relative="1" as="geometry">
            <mxPoint x="690" y="594" as="sourcePoint" />
            <mxPoint x="520" y="611" as="targetPoint" />
            <Array as="points" />
          </mxGeometry>
        </mxCell>
        <mxCell id="Y745U1mSrs2pT98jaRJC-30" value="" style="endArrow=classic;html=1;rounded=0;exitX=-0.001;exitY=0.895;exitDx=0;exitDy=0;exitPerimeter=0;" parent="1" source="Y745U1mSrs2pT98jaRJC-7" edge="1">
          <mxGeometry width="50" height="50" relative="1" as="geometry">
            <mxPoint x="700" y="604" as="sourcePoint" />
            <mxPoint x="520" y="659" as="targetPoint" />
          </mxGeometry>
        </mxCell>
        <mxCell id="Y745U1mSrs2pT98jaRJC-31" value="New Rooms" style="text;html=1;align=center;verticalAlign=middle;whiteSpace=wrap;rounded=0;" parent="1" vertex="1">
          <mxGeometry x="730" y="530" width="80" height="30" as="geometry" />
        </mxCell>
        <mxCell id="Y745U1mSrs2pT98jaRJC-32" value="Room Details&amp;nbsp;" style="text;html=1;align=center;verticalAlign=middle;whiteSpace=wrap;rounded=0;" parent="1" vertex="1">
          <mxGeometry x="545" y="360" width="90" height="30" as="geometry" />
        </mxCell>
        <mxCell id="Y745U1mSrs2pT98jaRJC-33" value="User" style="html=1;whiteSpace=wrap;" parent="1" vertex="1">
          <mxGeometry x="150" y="130" width="90" height="50" as="geometry" />
        </mxCell>
        <mxCell id="Y745U1mSrs2pT98jaRJC-35" value="" style="endArrow=classic;html=1;rounded=0;entryX=0.667;entryY=0.667;entryDx=0;entryDy=0;exitX=0;exitY=0.5;exitDx=0;exitDy=0;entryPerimeter=0;" parent="1" source="Y745U1mSrs2pT98jaRJC-5" target="BHMo-wDlbKty1T46JkNd-8" edge="1">
          <mxGeometry width="50" height="50" relative="1" as="geometry">
            <mxPoint x="450" y="530" as="sourcePoint" />
            <mxPoint x="270" y="610" as="targetPoint" />
          </mxGeometry>
        </mxCell>
        <mxCell id="Y745U1mSrs2pT98jaRJC-36" value="&lt;p style=&quot;margin: 4px 0px 0px; text-align: center;&quot;&gt;&lt;b style=&quot;&quot;&gt;7.0&lt;/b&gt;&lt;/p&gt;&lt;hr size=&quot;1&quot; style=&quot;border-style:solid;&quot;&gt;&lt;p style=&quot;margin:0px;margin-left:8px;&quot;&gt;Add Users&lt;/p&gt;&lt;p style=&quot;margin:0px;margin-left:8px;&quot;&gt;(add_user.php)&lt;/p&gt;" style="verticalAlign=top;align=left;overflow=fill;html=1;whiteSpace=wrap;rounded=1;" parent="1" vertex="1">
          <mxGeometry x="840" y="440" width="160" height="70" as="geometry" />
        </mxCell>
        <mxCell id="Y745U1mSrs2pT98jaRJC-37" value="" style="endArrow=classic;html=1;rounded=0;exitX=1;exitY=0.5;exitDx=0;exitDy=0;entryX=0.5;entryY=1;entryDx=0;entryDy=0;" parent="1" source="Y745U1mSrs2pT98jaRJC-7" target="Y745U1mSrs2pT98jaRJC-36" edge="1">
          <mxGeometry width="50" height="50" relative="1" as="geometry">
            <mxPoint x="730" y="580" as="sourcePoint" />
            <mxPoint x="730" y="520" as="targetPoint" />
            <Array as="points">
              <mxPoint x="920" y="620" />
            </Array>
          </mxGeometry>
        </mxCell>
        <mxCell id="Y745U1mSrs2pT98jaRJC-38" value="" style="endArrow=classic;html=1;rounded=0;exitX=0.5;exitY=0;exitDx=0;exitDy=0;entryX=0.891;entryY=1.002;entryDx=0;entryDy=0;entryPerimeter=0;" parent="1" source="Y745U1mSrs2pT98jaRJC-36" target="BHMo-wDlbKty1T46JkNd-1" edge="1">
          <mxGeometry width="50" height="50" relative="1" as="geometry">
            <mxPoint x="730" y="580" as="sourcePoint" />
            <mxPoint x="790" y="140" as="targetPoint" />
            <Array as="points">
              <mxPoint x="920" y="170" />
              <mxPoint x="790" y="170" />
            </Array>
          </mxGeometry>
        </mxCell>
        <mxCell id="Y745U1mSrs2pT98jaRJC-39" value="New User" style="text;html=1;align=center;verticalAlign=middle;whiteSpace=wrap;rounded=0;" parent="1" vertex="1">
          <mxGeometry x="800" y="180" width="100" height="30" as="geometry" />
        </mxCell>
        <mxCell id="BHMo-wDlbKty1T46JkNd-1" value="D" style="html=1;dashed=0;whiteSpace=wrap;shape=mxgraph.dfd.dataStoreID;align=left;spacingLeft=3;points=[[0,0],[0.5,0],[1,0],[0,0.5],[1,0.5],[0,1],[0.5,1],[1,1]];" vertex="1" parent="1">
          <mxGeometry x="630" y="50" width="180" height="70" as="geometry" />
        </mxCell>
        <mxCell id="BHMo-wDlbKty1T46JkNd-2" value="users Table&lt;div&gt;MySql&lt;/div&gt;" style="text;html=1;align=center;verticalAlign=middle;whiteSpace=wrap;rounded=0;" vertex="1" parent="1">
          <mxGeometry x="690" y="70" width="60" height="30" as="geometry" />
        </mxCell>
        <mxCell id="BHMo-wDlbKty1T46JkNd-3" value="D" style="html=1;dashed=0;whiteSpace=wrap;shape=mxgraph.dfd.dataStoreID;align=left;spacingLeft=3;points=[[0,0],[0.5,0],[1,0],[0,0.5],[1,0.5],[0,1],[0.5,1],[1,1]];" vertex="1" parent="1">
          <mxGeometry x="650" y="320" width="180" height="70" as="geometry" />
        </mxCell>
        <mxCell id="BHMo-wDlbKty1T46JkNd-5" value="rooms Table&lt;div&gt;MySql&lt;/div&gt;" style="text;html=1;align=center;verticalAlign=middle;whiteSpace=wrap;rounded=0;" vertex="1" parent="1">
          <mxGeometry x="700" y="330" width="60" height="30" as="geometry" />
        </mxCell>
        <mxCell id="BHMo-wDlbKty1T46JkNd-7" value="guests Table&lt;div&gt;MySql&lt;/div&gt;" style="html=1;dashed=0;whiteSpace=wrap;shape=mxgraph.dfd.dataStoreID;align=center;spacingLeft=3;points=[[0,0],[0.5,0],[1,0],[0,0.5],[1,0.5],[0,1],[0.5,1],[1,1]];direction=west;" vertex="1" parent="1">
          <mxGeometry x="90" y="585" width="180" height="70" as="geometry" />
        </mxCell>
        <mxCell id="BHMo-wDlbKty1T46JkNd-8" value="D" style="text;html=1;align=center;verticalAlign=middle;whiteSpace=wrap;rounded=0;" vertex="1" parent="1">
          <mxGeometry x="230" y="605" width="60" height="30" as="geometry" />
        </mxCell>
      </root>
    </mxGraphModel>
  </diagram>
</mxfile>
